<?xml version="1.0" encoding="UTF-8" standalone="no"?>
<!DOCTYPE svg PUBLIC "-//W3C//DTD SVG 1.1//EN" "http://www.w3.org/Graphics/SVG/1.1/DTD/svg11.dtd">
<svg width="100%" height="100%" viewBox="0 0 500 100" version="1.1" xmlns="http://www.w3.org/2000/svg" xmlns:xlink="http://www.w3.org/1999/xlink" xml:space="preserve" xmlns:serif="http://www.serif.com/" style="fill-rule:evenodd;clip-rule:evenodd;stroke-linejoin:round;stroke-miterlimit:2;">
    <g transform="matrix(1,0,0,1,-293.403,0)">
        <g transform="matrix(2,0,0,2,45.2768,-100.092)">
            <path d="M140.564,76.157C132.286,72.101 137.498,62.759 148.736,66.75C151.038,62.111 159.846,62.363 162.492,67.325C169.711,68.885 169.832,75.518 164.382,77.698C165.278,84.012 162.811,87.173 156.025,86.281C151.566,86.936 147.216,87.349 145.407,82.193C140.737,81.629 139.685,79.351 140.564,76.157Z" style="fill:rgb(51,63,88);"/>
            <clipPath id="_clip1">
                <path d="M140.564,76.157C132.286,72.101 137.498,62.759 148.736,66.75C151.038,62.111 159.846,62.363 162.492,67.325C169.711,68.885 169.832,75.518 164.382,77.698C165.278,84.012 162.811,87.173 156.025,86.281C151.566,86.936 147.216,87.349 145.407,82.193C140.737,81.629 139.685,79.351 140.564,76.157Z"/>
            </clipPath>
            <g clip-path="url(#_clip1)">
                <path d="M168.159,72.075C162.21,71.242 160.053,73.477 157.474,75.14C161.309,75.676 163.04,76.572 164.145,77.575C157.84,78.004 151.272,82.064 152.445,82.374C152.054,80.958 150.689,79.768 146.994,79.116C145.489,77.554 143.121,77.183 140.185,77.599L136.506,82.95C136.506,82.95 140.466,90.627 143.563,91.275C146.66,91.923 164.564,93.67 164.564,93.67L175.253,85.191L168.159,72.075Z" style="fill:rgb(40,40,49);"/>
                <path d="M136.744,71.287C138.898,73.064 142.24,73.732 146.827,73.237C143.827,73.401 141.498,74.18 140.442,76.127L133.779,75.934L133.645,71.735L136.744,71.287Z" style="fill:rgb(40,40,49);"/>
                <path d="M149.724,69.366C151.691,71.609 154.382,71.868 157.621,70.733" style="fill:rgb(40,40,49);"/>
                <path d="M149.688,69.398C150.057,69.953 150.463,70.408 150.93,70.783C151.147,70.958 151.375,71.105 151.614,71.237C151.938,71.416 152.279,71.554 152.637,71.655C152.872,71.721 153.114,71.766 153.361,71.793C153.541,71.813 153.724,71.821 153.91,71.818C154.319,71.812 154.736,71.764 155.165,71.675C155.503,71.604 155.842,71.512 156.19,71.392C156.668,71.228 157.142,71.022 157.637,70.778C157.662,70.769 157.675,70.742 157.667,70.717C157.658,70.692 157.63,70.679 157.605,70.687C157.078,70.803 156.578,70.877 156.088,70.931C155.565,70.989 155.071,71.004 154.591,70.993C154.258,70.985 153.939,70.952 153.624,70.918C153.302,70.882 152.99,70.837 152.683,70.771C152.262,70.681 151.858,70.565 151.46,70.394C150.869,70.139 150.303,69.812 149.76,69.334C149.743,69.314 149.712,69.312 149.692,69.33C149.672,69.347 149.67,69.378 149.688,69.398Z" style="fill:rgb(40,40,49);"/>
            </g>
            <path d="M140.139,76.351C139.683,78.158 139.871,79.678 140.905,80.794C141.709,81.661 143.052,82.293 145.083,82.593C145.397,83.438 145.78,84.136 146.225,84.704C146.835,85.482 147.556,86.023 148.352,86.391C150.503,87.387 153.245,87.073 156.032,86.634C157.138,86.769 158.13,86.788 159.015,86.728C160.916,86.599 162.336,86.036 163.325,85.041C164.338,84.022 164.933,82.563 165.037,80.688C165.083,79.86 165.017,78.951 164.874,77.965C167.727,76.606 168.951,74.071 168.375,71.76C168.243,71.232 168.014,70.719 167.698,70.226C167.572,70.03 167.435,69.835 167.28,69.645C166.354,68.51 164.853,67.554 162.723,67.027C161.784,65.293 160.132,64.077 158.24,63.472C157.431,63.213 156.578,63.079 155.729,63.04C152.785,62.906 149.867,64.033 148.594,66.389C143.779,64.661 140.028,65.4 137.942,67.105C137.282,67.644 136.781,68.283 136.462,68.977C135.366,71.364 136.334,74.435 140.139,76.351ZM140.912,76.253C140.958,76.086 140.879,75.91 140.723,75.833C137.308,74.102 136.358,71.474 137.335,69.38C137.602,68.808 138.004,68.277 138.539,67.818C140.471,66.164 144.009,65.462 148.639,67.024C148.778,67.074 148.932,67.012 148.997,66.88C150.153,64.631 152.929,63.657 155.681,63.855C156.459,63.911 157.232,64.073 157.974,64.307C159.725,64.859 161.302,65.888 162.189,67.487C162.236,67.576 162.32,67.639 162.419,67.661C164.494,68.072 165.978,68.915 166.892,69.971C167.038,70.139 167.171,70.311 167.284,70.49C167.565,70.932 167.744,71.405 167.842,71.881C168.281,74.004 166.972,76.253 164.216,77.283C164.025,77.359 163.91,77.556 163.939,77.76C164.071,78.811 164.092,79.77 164.046,80.634C163.958,82.259 163.57,83.552 162.726,84.468C161.886,85.378 160.643,85.936 158.966,86.07C158.109,86.139 157.145,86.083 156.071,85.934C156.039,85.93 156.006,85.93 155.974,85.935C153.335,86.293 150.736,86.587 148.724,85.608C148.054,85.282 147.458,84.807 146.942,84.145C146.507,83.587 146.128,82.899 145.823,82.047C145.768,81.889 145.627,81.776 145.46,81.755C143.529,81.539 142.245,81.029 141.49,80.242C140.555,79.268 140.476,77.892 140.912,76.253Z" style="fill:rgb(30,30,37);"/>
        </g>
        <g transform="matrix(2,0,0,2,-469.232,-116.282)">
            <path d="M451.078,74.202C451.999,72.245 454.348,71.2 457.135,71.616C460.572,72.129 462.376,74.19 462.376,77.116C462.376,80.043 460.611,82.221 457.135,82.221C456.157,82.221 455.262,82.041 454.468,81.718C453.261,82.967 451.813,84.908 448.345,83.226C446.092,82.133 446.469,77.523 447.742,76.021C448.649,74.952 449.862,74.352 451.078,74.202Z" style="fill:rgb(51,63,88);"/>
            <clipPath id="_clip2">
                <path d="M451.078,74.202C451.999,72.245 454.348,71.2 457.135,71.616C460.572,72.129 462.376,74.19 462.376,77.116C462.376,80.043 460.611,82.221 457.135,82.221C456.157,82.221 455.262,82.041 454.468,81.718C453.261,82.967 451.813,84.908 448.345,83.226C446.092,82.133 446.469,77.523 447.742,76.021C448.649,74.952 449.862,74.352 451.078,74.202Z"/>
            </clipPath>
            <g clip-path="url(#_clip2)">
                <path d="M462.399,77.204C458.283,78.573 455.231,79.217 451.957,76.701C451.933,76.683 451.9,76.681 451.874,76.696C451.848,76.712 451.834,76.742 451.838,76.772C452.441,80.576 450.371,82.492 447.55,82.814L447.553,86.297L455.231,85.761L463.757,81.281L462.399,77.204Z" style="fill:rgb(40,40,49);"/>
            </g>
            <path d="M450.835,73.869C450.226,73.957 449.621,74.151 449.05,74.451C448.454,74.763 447.898,75.195 447.415,75.744C447.037,76.179 446.708,76.849 446.512,77.635C446.279,78.568 446.23,79.659 446.388,80.648C446.594,81.937 447.17,83.055 448.199,83.528C448.429,83.638 448.653,83.729 448.865,83.814C450.069,84.301 451.022,84.374 451.825,84.191C452.497,84.039 453.071,83.729 453.551,83.328C453.96,82.987 454.29,82.581 454.605,82.214C454.958,82.322 455.326,82.405 455.711,82.458C456.166,82.52 456.641,82.546 457.135,82.523C457.757,82.502 458.319,82.402 458.836,82.276C459.776,82.046 460.558,81.67 461.172,81.118C461.936,80.432 462.464,79.515 462.686,78.433C462.772,78.016 462.799,77.574 462.794,77.116C462.745,75.471 462.153,74.121 461.104,73.101C460.795,72.8 460.453,72.52 460.064,72.274C459.284,71.781 458.331,71.413 457.196,71.205C456.415,71.064 455.662,71.023 454.962,71.107C454.438,71.17 453.946,71.305 453.492,71.486C452.292,71.965 451.361,72.792 450.835,73.869ZM451.123,74.56C451.245,74.545 451.352,74.467 451.405,74.355C451.884,73.408 452.743,72.73 453.817,72.352C454.212,72.213 454.637,72.122 455.085,72.06C455.707,71.974 456.373,71.944 457.074,72.026C458.115,72.147 459.008,72.407 459.739,72.818C460.096,73.019 460.419,73.249 460.691,73.52C461.599,74.424 462,75.676 461.957,77.116C461.953,77.518 461.904,77.902 461.837,78.269C461.67,79.195 461.325,80.016 460.715,80.643C460.207,81.167 459.548,81.589 458.717,81.793C458.24,81.91 457.709,81.937 457.135,81.919C456.683,81.898 456.253,81.835 455.843,81.739C455.412,81.639 455.009,81.496 454.63,81.321C454.468,81.255 454.281,81.294 454.16,81.42C453.784,81.779 453.37,82.182 452.912,82.559C452.531,82.874 452.121,83.181 451.599,83.341C450.939,83.542 450.125,83.568 449.103,83.195C448.905,83.122 448.703,83.028 448.492,82.924C447.685,82.512 447.306,81.574 447.181,80.537C447.075,79.65 447.179,78.687 447.391,77.857C447.554,77.22 447.772,76.659 448.069,76.298C448.466,75.814 448.928,75.428 449.428,75.143C449.965,74.837 450.542,74.642 451.123,74.56Z" style="fill:rgb(30,30,37);"/>
            <g transform="matrix(1,0,0,1,-2.39531,-3.91889)">
                <path d="M470.268,79.866C472.786,79.866 475.391,81.891 474.831,84.24C474.392,86.078 472.316,84.603 471.692,85.351C471.454,85.637 472.786,88.613 470.268,88.613C467.75,88.613 464.948,86.438 464.948,84.024C464.948,81.61 467.75,79.866 470.268,79.866Z" style="fill:rgb(51,63,88);"/>
                <clipPath id="_clip3">
                    <path d="M470.268,79.866C472.786,79.866 475.391,81.891 474.831,84.24C474.392,86.078 472.316,84.603 471.692,85.351C471.454,85.637 472.786,88.613 470.268,88.613C467.75,88.613 464.948,86.438 464.948,84.024C464.948,81.61 467.75,79.866 470.268,79.866Z"/>
                </clipPath>
                <g clip-path="url(#_clip3)">
                    <g transform="matrix(1,0,0,1,2.39531,3.91889)">
                        <path d="M463.968,83.004C466.067,83.067 467.35,82.079 467.738,79.939C467.746,79.895 467.772,79.856 467.809,79.832C467.847,79.808 467.892,79.8 467.936,79.81C470.26,80.366 471.98,80.404 472.505,79.241L476.052,86.222L467.948,89.93L463.968,83.004Z" style="fill:rgb(40,40,49);"/>
                    </g>
                </g>
                <path d="M472.065,85.595C472.119,85.555 472.192,85.545 472.272,85.538C472.383,85.528 472.503,85.526 472.628,85.532C473.197,85.557 473.846,85.637 474.331,85.399C474.634,85.25 474.881,84.998 475.041,84.551C475.068,84.476 475.096,84.396 475.12,84.309C475.512,82.955 474.928,81.659 473.884,80.709C473.768,80.603 473.648,80.5 473.517,80.408C473.326,80.274 473.118,80.161 472.904,80.058C472.094,79.67 471.171,79.466 470.268,79.505C468.975,79.474 467.589,79.858 466.52,80.589C466.18,80.821 465.876,81.094 465.615,81.391C464.96,82.134 464.568,83.036 464.6,84.024C464.607,84.322 464.659,84.614 464.73,84.903C464.759,85.025 464.791,85.147 464.828,85.268C465.1,86.158 465.644,87.024 466.427,87.668C466.639,87.843 466.875,87.99 467.118,88.124C468.096,88.663 469.216,88.944 470.268,88.874C470.402,88.869 470.524,88.852 470.639,88.837C471.359,88.746 471.749,88.43 471.97,87.996C472.26,87.424 472.214,86.64 472.149,86.041C472.132,85.888 472.079,85.709 472.065,85.595ZM470.268,80.226C471.194,80.264 472.097,80.635 472.858,81.132C473.191,81.351 473.508,81.58 473.767,81.856C474.363,82.492 474.707,83.288 474.541,84.17C474.448,84.527 474.286,84.722 474.071,84.807C473.852,84.895 473.595,84.869 473.336,84.838C473.019,84.799 472.7,84.73 472.416,84.712C471.971,84.682 471.605,84.793 471.356,85.071C471.283,85.162 471.2,85.357 471.238,85.642C471.272,85.904 471.392,86.322 471.45,86.768C471.493,87.101 471.517,87.45 471.404,87.744C471.29,88.04 471.045,88.288 470.577,88.349C470.482,88.361 470.379,88.357 470.268,88.352C469.163,88.281 468.082,87.7 467.162,86.982C466.936,86.807 466.705,86.643 466.501,86.45C466.005,85.981 465.583,85.449 465.396,84.843C465.314,84.578 465.29,84.301 465.295,84.024C465.326,82.9 466.064,81.996 467.032,81.331C467.967,80.688 469.134,80.254 470.268,80.226ZM472.04,85.617C472.036,85.621 472.032,85.626 472.028,85.631L472.04,85.617ZM472.064,85.591C472.104,85.548 472.151,85.492 472.102,85.484C472.062,85.479 472.055,85.522 472.064,85.591Z" style="fill:rgb(30,30,37);"/>
            </g>
            <g transform="matrix(0.917842,-0.396947,0.396947,0.917842,6.29756,185.936)">
                <path d="M448.647,85.629C444.8,84.711 444.513,92.382 451.875,91.597C453.002,95.598 460.548,94.849 458.81,90.771C460.313,85.367 451.227,83.461 448.647,85.629Z" style="fill:rgb(51,63,88);"/>
                <clipPath id="_clip4">
                    <path d="M448.647,85.629C444.8,84.711 444.513,92.382 451.875,91.597C453.002,95.598 460.548,94.849 458.81,90.771C460.313,85.367 451.227,83.461 448.647,85.629Z"/>
                </clipPath>
                <g clip-path="url(#_clip4)">
                    <g transform="matrix(0.917842,0.396947,-0.396947,0.917842,68.0265,-173.159)">
                        <path d="M451.752,86.694C450.667,90.704 457.699,88.952 457.956,88.455C460.972,89.334 462.953,87.651 462.746,85.56L473.858,90.339C473.858,90.339 469.555,99.678 465.952,100.194C462.35,100.71 446.824,99.88 444.45,97.807C442.075,95.733 438.53,88.346 438.53,88.346L451.752,86.694Z" style="fill:rgb(40,40,49);"/>
                    </g>
                </g>
                <path d="M448.559,85.236C446.912,84.872 445.804,85.917 445.55,87.308C445.518,87.487 445.503,87.673 445.506,87.862C445.517,88.54 445.736,89.258 446.176,89.898C446.71,90.673 447.58,91.302 448.819,91.67C449.584,91.896 450.491,92.049 451.581,92.009C451.706,92.383 451.882,92.719 452.108,93.01C452.183,93.106 452.266,93.196 452.352,93.28C453.319,94.228 454.778,94.609 456.104,94.504C456.333,94.486 456.557,94.449 456.776,94.411C457.127,94.35 457.464,94.27 457.772,94.149C459.089,93.63 459.876,92.486 459.321,90.75C459.383,90.487 459.425,90.231 459.437,89.982C459.487,89.025 459.206,88.2 458.729,87.494C458.528,87.196 458.29,86.921 458.027,86.659C457.364,85.998 456.517,85.443 455.564,85.047C454.846,84.748 454.078,84.521 453.31,84.406C453.115,84.377 452.92,84.359 452.726,84.345C451.049,84.225 449.479,84.536 448.559,85.236ZM448.564,85.98C448.675,86.006 448.792,85.979 448.88,85.905C449.679,85.261 451.123,85.083 452.647,85.236C452.911,85.262 453.179,85.299 453.447,85.343C454.516,85.515 455.595,85.829 456.494,86.347C456.968,86.62 457.406,86.932 457.74,87.318C458.352,88.024 458.615,88.923 458.48,89.95C458.451,90.172 458.406,90.402 458.336,90.639C458.306,90.746 458.314,90.861 458.358,90.963C458.642,91.542 458.711,92.043 458.584,92.467C458.433,92.973 458.052,93.368 457.539,93.629C457.281,93.761 456.996,93.87 456.689,93.926C456.493,93.962 456.288,93.971 456.081,93.972C454.948,93.976 453.744,93.546 452.976,92.685C452.914,92.616 452.856,92.542 452.798,92.469C452.573,92.185 452.376,91.867 452.257,91.489C452.204,91.303 452.025,91.182 451.833,91.202C450.706,91.363 449.755,91.343 448.985,91.113C447.938,90.8 447.261,90.152 446.859,89.465C446.478,88.814 446.395,88.094 446.499,87.467C446.662,86.494 447.37,85.737 448.564,85.98Z" style="fill:rgb(30,30,37);"/>
            </g>
        </g>
        <g transform="matrix(2,0,0,2,-368.623,-117.704)">
            <g transform="matrix(0.855473,0,0,0.874025,64.5629,10.567)">
                <path d="M451.132,75.005C452.046,72.97 454.279,72.538 457.064,72.958C460.471,73.47 461.423,74.484 461.425,76.835C461.427,78.535 460.37,80.841 458.035,80.904C457.058,80.931 454.837,79.897 454.043,79.574C453.711,81.514 451.526,85.613 448.057,83.931C445.804,82.839 446.523,78.327 447.796,76.825C448.703,75.755 449.916,75.156 451.132,75.005Z" style="fill:rgb(51,63,88);"/>
                <clipPath id="_clip5">
                    <path d="M451.132,75.005C452.046,72.97 454.279,72.538 457.064,72.958C460.471,73.47 461.423,74.484 461.425,76.835C461.427,78.535 460.37,80.841 458.035,80.904C457.058,80.931 454.837,79.897 454.043,79.574C453.711,81.514 451.526,85.613 448.057,83.931C445.804,82.839 446.523,78.327 447.796,76.825C448.703,75.755 449.916,75.156 451.132,75.005Z"/>
                </clipPath>
                <g clip-path="url(#_clip5)">
                    <path d="M462.399,77.204C458.293,78.57 455.246,79.214 451.983,76.72C451.954,76.699 451.916,76.697 451.885,76.714C451.855,76.732 451.838,76.766 451.843,76.8C452.43,80.585 450.363,82.492 447.55,82.814L447.553,86.297L455.231,85.761L463.757,81.281L462.399,77.204Z" style="fill:rgb(40,40,49);"/>
                </g>
                <path d="M450.95,74.768C450.335,74.854 449.722,75.05 449.146,75.356C448.565,75.665 448.024,76.089 447.554,76.628C447.196,77.043 446.864,77.674 446.638,78.409C446.363,79.305 446.242,80.354 446.329,81.311C446.444,82.568 446.937,83.67 447.95,84.143C448.309,84.324 448.656,84.442 448.99,84.515C449.948,84.725 450.805,84.528 451.548,84.091C451.926,83.868 452.279,83.587 452.584,83.257C452.659,83.176 452.728,83.092 452.795,83.006C453.569,82.021 454.051,80.795 454.229,79.892C454.591,80.03 455.09,80.222 455.612,80.424C455.986,80.568 456.37,80.722 456.733,80.844C457.241,81.016 457.708,81.133 458.041,81.132C459.265,81.131 460.184,80.554 460.802,79.745C460.929,79.578 461.043,79.401 461.141,79.216C461.542,78.457 461.71,77.586 461.693,76.834C461.667,75.704 461.421,74.883 460.859,74.251C460.192,73.501 459.049,72.999 457.111,72.662C456.372,72.534 455.67,72.455 455.018,72.472C454.232,72.491 453.521,72.637 452.908,72.896C452.043,73.262 451.368,73.866 450.95,74.768ZM451.165,75.261C451.257,75.25 451.336,75.192 451.374,75.109C451.76,74.298 452.374,73.78 453.154,73.482C453.706,73.271 454.341,73.184 455.039,73.161C455.653,73.14 456.317,73.164 457.018,73.253C458.811,73.481 459.925,73.836 460.54,74.524C461.037,75.08 461.178,75.838 461.158,76.835C461.144,77.502 460.943,78.258 460.578,78.926C460.492,79.084 460.398,79.239 460.294,79.386C459.796,80.087 459.06,80.621 458.028,80.676C457.648,80.696 457.064,80.552 456.457,80.35C456.221,80.271 455.98,80.186 455.749,80.092C455.082,79.82 454.477,79.512 454.134,79.361C454.068,79.334 453.992,79.338 453.929,79.372C453.866,79.406 453.822,79.466 453.81,79.536C453.638,80.369 453.082,81.603 452.24,82.564C452.176,82.637 452.109,82.707 452.044,82.779C451.781,83.064 451.503,83.331 451.188,83.54C450.593,83.935 449.894,84.155 449.091,84.018C448.794,83.967 448.486,83.868 448.165,83.719C447.321,83.295 446.97,82.334 446.905,81.269C446.851,80.383 447.013,79.424 447.272,78.597C447.474,77.955 447.731,77.39 448.039,77.021C448.444,76.529 448.918,76.139 449.429,75.85C449.979,75.539 450.571,75.342 451.165,75.261Z" style="fill:rgb(30,30,37);"/>
            </g>
            <g transform="matrix(0.772113,0,0,0.823034,104.494,12.0086)">
                <path d="M471.343,79.198C473.861,79.198 476.466,81.224 475.905,83.572C475.466,85.411 472.871,84.191 472.247,84.939C472.008,85.225 472.786,88.613 470.268,88.613C467.75,88.613 464.948,86.438 464.948,84.024C464.948,81.61 468.824,79.198 471.343,79.198Z" style="fill:rgb(51,63,88);"/>
                <clipPath id="_clip6">
                    <path d="M471.343,79.198C473.861,79.198 476.466,81.224 475.905,83.572C475.466,85.411 472.871,84.191 472.247,84.939C472.008,85.225 472.786,88.613 470.268,88.613C467.75,88.613 464.948,86.438 464.948,84.024C464.948,81.61 468.824,79.198 471.343,79.198Z"/>
                </clipPath>
                <g clip-path="url(#_clip6)">
                    <g transform="matrix(1,0,0,1,2.39531,3.91889)">
                        <path d="M463.968,83.004C466.566,83.099 468.411,82.269 468.795,79.506C468.803,79.451 468.835,79.402 468.884,79.371C468.933,79.339 468.994,79.329 469.051,79.342C471.335,79.86 472.881,79.513 473.402,78.36L476.052,86.222L467.948,89.93L463.968,83.004Z" style="fill:rgb(40,40,49);"/>
                    </g>
                </g>
                <path d="M472.56,85.097C472.545,85.11 472.531,85.123 472.519,85.139C472.527,85.13 472.551,85.111 472.56,85.097C472.627,85.044 472.72,85.017 472.827,84.997C472.988,84.967 473.173,84.955 473.371,84.949C473.992,84.931 474.712,84.951 475.254,84.706C475.438,84.623 475.601,84.511 475.743,84.365C475.921,84.184 476.068,83.948 476.155,83.625C476.517,82.325 475.986,81.071 474.977,80.182C474.69,79.929 474.358,79.713 474.004,79.532C473.194,79.118 472.258,78.897 471.343,78.925C470.049,78.904 468.382,79.459 467.053,80.38C465.651,81.352 464.647,82.715 464.677,84.024C464.678,84.157 464.69,84.29 464.703,84.422C464.795,85.353 465.208,86.26 465.886,87.011C466.049,87.192 466.225,87.364 466.419,87.518C467.505,88.384 468.947,88.868 470.268,88.809C470.39,88.806 470.505,88.793 470.613,88.779C470.804,88.754 470.975,88.716 471.13,88.659C471.582,88.491 471.886,88.178 472.096,87.796C472.489,87.082 472.531,86.112 472.542,85.492C472.545,85.303 472.475,85.059 472.556,85.079C472.567,85.082 472.566,85.089 472.56,85.097ZM471.343,79.472C472.144,79.496 472.94,79.751 473.632,80.141C473.928,80.309 474.202,80.506 474.454,80.717C475.315,81.441 475.875,82.417 475.656,83.52C475.606,83.755 475.523,83.937 475.396,84.067C475.3,84.167 475.18,84.233 475.052,84.282C474.463,84.51 473.669,84.359 473.056,84.368C472.58,84.374 472.199,84.486 471.974,84.739C471.931,84.788 471.887,84.872 471.865,84.994C471.845,85.105 471.836,85.279 471.84,85.492C471.851,86.05 471.929,86.925 471.63,87.592C471.517,87.842 471.357,88.065 471.11,88.215C470.953,88.31 470.766,88.385 470.541,88.411C470.455,88.421 470.364,88.42 470.268,88.417C469.082,88.364 467.889,87.769 466.944,86.959C466.779,86.818 466.617,86.676 466.465,86.525C465.839,85.903 465.346,85.173 465.236,84.367C465.22,84.253 465.217,84.139 465.218,84.024C465.24,83.089 465.908,82.181 466.823,81.426C467.049,81.24 467.293,81.066 467.543,80.898C467.708,80.787 467.875,80.676 468.047,80.573C469.127,79.923 470.341,79.49 471.343,79.472Z" style="fill:rgb(30,30,37);"/>
            </g>
            <g transform="matrix(0.837973,-0.362406,0.355829,0.822766,46.8376,179.039)">
                <path d="M450.704,86.873C445.812,83.654 444.513,92.382 451.875,91.597C452.058,95.662 461.34,94.355 457.72,90.567C459.054,86.117 453.284,84.705 450.704,86.873Z" style="fill:rgb(51,63,88);"/>
                <clipPath id="_clip7">
                    <path d="M450.704,86.873C445.812,83.654 444.513,92.382 451.875,91.597C452.058,95.662 461.34,94.355 457.72,90.567C459.054,86.117 453.284,84.705 450.704,86.873Z"/>
                </clipPath>
                <g clip-path="url(#_clip7)">
                    <g transform="matrix(0.917842,0.396947,-0.396947,0.917842,68.0265,-173.159)">
                        <path d="M451.752,86.694C450.667,90.704 457.699,88.952 457.956,88.455C460.972,89.334 462.953,87.651 462.746,85.56L473.858,90.339C473.858,90.339 469.555,99.678 465.952,100.194C462.35,100.71 446.824,99.88 444.45,97.807C442.075,95.733 438.53,88.346 438.53,88.346L451.752,86.694Z" style="fill:rgb(40,40,49);"/>
                    </g>
                </g>
                <path d="M450.689,86.561C449.511,85.789 448.512,85.71 447.784,86.003C447.505,86.115 447.262,86.283 447.064,86.494C446.463,87.136 446.256,88.162 446.543,89.143C446.718,89.742 447.085,90.317 447.646,90.794C447.908,91.017 448.21,91.225 448.563,91.397C449.207,91.71 450.016,91.926 451.014,91.94C451.209,91.942 451.411,91.935 451.62,91.921C451.874,93.267 453.069,93.996 454.443,94.19C454.521,94.201 454.6,94.209 454.678,94.219C454.861,94.242 455.044,94.265 455.229,94.277C455.871,94.317 456.515,94.252 457.076,94.092C457.573,93.95 458.002,93.729 458.318,93.445C458.595,93.197 458.79,92.896 458.863,92.553C458.987,91.974 458.77,91.259 458.018,90.482C458.115,90.061 458.149,89.669 458.143,89.304C458.142,89.188 458.138,89.074 458.129,88.962C458.01,87.51 457.061,86.493 455.801,85.961C455.497,85.833 455.176,85.732 454.844,85.666C454.627,85.623 454.406,85.596 454.184,85.581C452.928,85.498 451.628,85.823 450.689,86.561ZM450.57,87.084C450.66,87.144 450.778,87.137 450.861,87.067C451.727,86.362 452.961,86.09 454.137,86.199C454.335,86.218 454.532,86.249 454.726,86.287C455.021,86.344 455.309,86.42 455.582,86.525C456.674,86.944 457.545,87.767 457.676,89.006C457.686,89.103 457.693,89.203 457.691,89.305C457.686,89.672 457.605,90.065 457.463,90.487C457.434,90.583 457.459,90.687 457.527,90.759C458.11,91.412 458.29,91.953 458.194,92.406C458.126,92.731 457.918,93.007 457.608,93.228C457.174,93.537 456.579,93.754 455.934,93.847C455.582,93.898 455.217,93.921 454.857,93.891C454.702,93.878 454.549,93.852 454.399,93.82C453.211,93.566 452.188,92.851 452.17,91.583C452.167,91.5 452.129,91.422 452.068,91.368C452.006,91.314 451.925,91.288 451.844,91.297C451.552,91.331 451.275,91.347 451.011,91.354C450.097,91.378 449.344,91.253 448.742,90.993C448.42,90.853 448.139,90.683 447.907,90.48C447.43,90.063 447.156,89.533 447.035,89.01C446.854,88.231 447.052,87.451 447.533,86.961C447.742,86.747 448.004,86.587 448.324,86.515C448.914,86.383 449.669,86.526 450.57,87.084Z" style="fill:rgb(30,30,37);"/>
            </g>
        </g>
        <g transform="matrix(1.66402,0,0,1.70949,-397.532,-79.1388)">
            <g transform="matrix(1,0,0,1,-2.40382,-1.16994)">
                <path d="M620.213,77.998C619.039,78.137 618.041,76.285 619.062,73.951C618.062,70.443 620.735,69.951 622.923,71.073C624.275,72.285 623.674,73.716 621.638,75.115C621.696,77.13 621.36,77.863 620.213,77.998Z" style="fill:rgb(51,63,88);"/>
                <clipPath id="_clip8">
                    <path d="M620.213,77.998C619.039,78.137 618.041,76.285 619.062,73.951C618.062,70.443 620.735,69.951 622.923,71.073C624.275,72.285 623.674,73.716 621.638,75.115C621.696,77.13 621.36,77.863 620.213,77.998Z"/>
                </clipPath>
                <g clip-path="url(#_clip8)">
                    <path d="M619.684,77.851C619.305,76.877 619.803,74.695 620.752,74.638C620.415,73.738 623.29,73.133 623.397,71.375C623.397,71.375 626.192,76.546 625.976,76.766C625.761,76.986 621.167,81.98 621.167,81.98L617.805,79.1L618.344,78.063" style="fill:rgb(40,40,49);"/>
                </g>
                <path d="M620.235,78.173C620.896,78.108 621.318,77.852 621.576,77.329C621.715,77.047 621.809,76.681 621.846,76.211C621.869,75.92 621.866,75.589 621.85,75.212C622.394,74.812 622.825,74.408 623.148,74.017C623.203,73.95 623.255,73.884 623.306,73.819C623.544,73.512 623.714,73.211 623.802,72.909C623.913,72.53 623.912,72.149 623.758,71.785C623.63,71.481 623.391,71.197 623.061,70.927C623.048,70.915 623.034,70.905 623.018,70.897C622.451,70.639 621.86,70.502 621.309,70.441C620.637,70.367 620.016,70.426 619.535,70.718C619.222,70.909 618.96,71.186 618.806,71.567C618.579,72.129 618.587,72.916 618.907,73.941C618.501,74.803 618.372,75.609 618.434,76.279C618.455,76.503 618.496,76.712 618.56,76.901C618.861,77.791 619.546,78.274 620.235,78.173L620.235,78.173ZM620.192,77.824C619.667,77.87 619.237,77.433 619.018,76.758C618.965,76.594 618.92,76.418 618.891,76.227C618.799,75.603 618.866,74.841 619.197,74.006C619.209,73.977 619.212,73.944 619.203,73.913C618.96,72.95 619.005,72.238 619.213,71.722C619.334,71.421 619.506,71.184 619.743,71.018C620.145,70.734 620.691,70.609 621.28,70.679C621.783,70.74 622.301,70.951 622.795,71.23C623.04,71.472 623.193,71.723 623.296,71.968C623.467,72.379 623.463,72.802 623.252,73.248C623.185,73.391 623.104,73.537 622.998,73.68C622.955,73.737 622.908,73.793 622.858,73.849C622.528,74.22 622.075,74.585 621.518,74.95C621.462,74.989 621.429,75.053 621.431,75.12C621.435,75.523 621.419,75.873 621.395,76.177C621.362,76.587 621.308,76.91 621.196,77.159C621.014,77.563 620.692,77.755 620.192,77.824L620.192,77.824Z" style="fill:rgb(30,30,37);"/>
            </g>
            <g transform="matrix(1,0,0,1,-1.20191,-1.16994)">
                <path d="M628.523,72.709C623.644,74.787 622.341,70.641 623.794,68.139C624.788,66.426 627.596,65.413 629.587,67.212C634.161,67.837 631.504,73.667 628.523,72.709Z" style="fill:rgb(51,63,88);"/>
                <clipPath id="_clip9">
                    <path d="M628.523,72.709C623.644,74.787 622.341,70.641 623.794,68.139C624.788,66.426 627.596,65.413 629.587,67.212C634.161,67.837 631.504,73.667 628.523,72.709Z"/>
                </clipPath>
                <g clip-path="url(#_clip9)">
                    <path d="M622.706,69.903C624.408,71.571 626.482,71.883 627.848,71.076C628.318,71.9 630.227,71.717 631.469,71.512L625.207,76.291L619.548,69.155L622.706,69.903Z" style="fill:rgb(40,40,49);"/>
                </g>
                <path d="M628.534,72.897C629.69,73.25 630.822,72.674 631.525,71.732C631.814,71.345 632.022,70.894 632.138,70.434C632.345,69.62 632.236,68.782 631.735,68.123C631.341,67.603 630.701,67.18 629.703,66.994C629.632,66.928 629.56,66.864 629.485,66.808C628.541,66.098 627.438,65.983 626.452,66.198C626.339,66.223 626.227,66.254 626.116,66.285C626.004,66.315 625.893,66.346 625.783,66.383C624.865,66.688 624.071,67.292 623.607,68.036C623.559,68.114 623.513,68.194 623.472,68.276C623.411,68.398 623.36,68.526 623.314,68.655C623.005,69.524 622.995,70.484 623.238,71.317C623.379,71.8 623.598,72.246 623.932,72.606C624.357,73.065 624.951,73.397 625.728,73.486C625.889,73.505 626.058,73.511 626.234,73.505C626.894,73.48 627.659,73.288 628.534,72.897ZM628.58,72.542C628.538,72.528 628.492,72.53 628.451,72.547C627.592,72.889 626.852,73.031 626.222,73.039C626.067,73.041 625.919,73.036 625.777,73.023C625.111,72.965 624.585,72.731 624.199,72.358C623.883,72.053 623.646,71.67 623.519,71.239C623.294,70.474 623.391,69.585 623.712,68.799C623.759,68.684 623.813,68.573 623.868,68.462C623.905,68.388 623.94,68.313 623.98,68.241C624.312,67.623 624.884,67.087 625.577,66.749C625.751,66.664 625.931,66.588 626.119,66.534C626.244,66.498 626.372,66.473 626.501,66.453C627.398,66.318 628.338,66.543 629.177,67.191C629.257,67.254 629.342,67.316 629.422,67.385C629.458,67.418 629.504,67.439 629.553,67.446C630.477,67.541 631.11,67.854 631.473,68.315C631.916,68.88 631.944,69.631 631.741,70.332C631.624,70.738 631.416,71.127 631.158,71.473C630.544,72.293 629.598,72.853 628.58,72.542Z" style="fill:rgb(30,30,37);"/>
            </g>
            <g transform="matrix(1,0,0,1,2.40382,0)">
                <path d="M635.78,74.165C639.336,74.272 640.81,72.545 640.305,70.893C639.57,68.486 636.334,67.201 633.41,70.41C631.987,71.971 631.675,73.779 632.424,74.943C633.259,76.242 635.281,76.694 635.78,74.165Z" style="fill:rgb(51,63,88);"/>
                <clipPath id="_clip10">
                    <path d="M635.78,74.165C639.336,74.272 640.81,72.545 640.305,70.893C639.57,68.486 636.334,67.201 633.41,70.41C631.987,71.971 631.675,73.779 632.424,74.943C633.259,76.242 635.281,76.694 635.78,74.165Z"/>
                </clipPath>
                <g clip-path="url(#_clip10)">
                    <path d="M632.404,75.569C634.787,74.755 633.988,73.606 634.382,73.366C636.039,72.356 636.836,73.549 640.494,71.482L642.771,74.578C642.771,74.578 636.888,79.232 636.519,79.129C636.151,79.025 632.491,75.787 632.491,75.787L632.404,75.569Z" style="fill:rgb(40,40,49);"/>
                </g>
                <path d="M635.928,74.348C636.816,74.384 637.577,74.305 638.209,74.132C638.319,74.101 638.425,74.068 638.526,74.031C638.994,73.856 639.375,73.621 639.678,73.359C640.32,72.803 640.592,72.105 640.544,71.392C640.532,71.212 640.505,71.031 640.453,70.85C640.285,70.235 639.961,69.685 639.521,69.252C639.326,69.061 639.111,68.89 638.872,68.755C638.359,68.464 637.756,68.321 637.114,68.336C636.692,68.346 636.255,68.438 635.8,68.594C635.522,68.69 635.235,68.805 634.945,68.959C634.383,69.256 633.806,69.678 633.233,70.257C633.111,70.385 632.992,70.512 632.889,70.647C632.425,71.249 632.149,71.895 631.998,72.503C631.956,72.675 631.927,72.845 631.903,73.011C631.795,73.771 631.901,74.476 632.254,75.047C632.536,75.503 632.952,75.87 633.408,76.061C633.76,76.208 634.136,76.249 634.489,76.167C635.107,76.023 635.683,75.488 635.928,74.348ZM635.786,73.989C635.697,73.987 635.619,74.047 635.603,74.132C635.385,75.149 634.926,75.641 634.392,75.753C634.127,75.808 633.849,75.763 633.585,75.655C633.202,75.5 632.843,75.212 632.594,74.84C632.265,74.348 632.126,73.724 632.229,73.056C632.332,72.385 632.686,71.685 633.224,71.013C633.26,70.969 633.297,70.925 633.334,70.879C633.416,70.775 633.497,70.667 633.587,70.563C634.081,69.974 634.585,69.525 635.096,69.209C635.359,69.047 635.62,68.914 635.883,68.824C636.305,68.681 636.721,68.639 637.112,68.654C637.683,68.675 638.196,68.857 638.65,69.12C639.345,69.524 639.896,70.154 640.157,70.936C640.208,71.093 640.243,71.251 640.251,71.408C640.284,72.021 639.989,72.606 639.412,73.052C639.131,73.269 638.777,73.444 638.358,73.589C638.266,73.622 638.17,73.654 638.072,73.684C637.447,73.876 636.688,73.995 635.786,73.989Z" style="fill:rgb(30,30,37);"/>
            </g>
            <path d="M628.242,78.063C632.37,75.46 635.478,80.011 632.203,81.856C632.216,86.037 627.527,85.572 627.551,81.872C627.217,82.126 626.869,82.185 626.503,82.012C626.014,83.476 625.341,83.959 624.497,83.794C622.519,83.407 621.929,81.408 622.529,79.709C623.119,78.035 625.947,77.167 628.242,78.063Z" style="fill:rgb(51,63,88);"/>
            <clipPath id="_clip11">
                <path d="M628.242,78.063C632.37,75.46 635.478,80.011 632.203,81.856C632.216,86.037 627.527,85.572 627.551,81.872C627.217,82.126 626.869,82.185 626.503,82.012C626.014,83.476 625.341,83.959 624.497,83.794C622.519,83.407 621.929,81.408 622.529,79.709C623.119,78.035 625.947,77.167 628.242,78.063Z"/>
            </clipPath>
            <g clip-path="url(#_clip11)">
                <path d="M622.463,80.794C622.569,80.981 623.321,81.948 624.286,81.786C624.777,81.704 625.294,80.16 626.374,79.95C627.618,79.708 628.995,80.22 630.304,81.252C630.83,81.667 632.488,81.257 632.909,81.527L633.912,87.003C633.912,87.003 626.102,88.471 624.994,88.008C623.886,87.544 618.309,83.557 618.4,83.232C618.492,82.908 622.463,80.794 622.463,80.794Z" style="fill:rgb(40,40,49);"/>
            </g>
            <path d="M628.221,77.865C627.161,77.459 625.993,77.412 624.974,77.642C624.509,77.747 624.074,77.908 623.696,78.122C623.035,78.496 622.549,79.026 622.339,79.645C622.038,80.536 622.058,81.495 622.387,82.29C622.493,82.547 622.627,82.787 622.798,83.004C623.175,83.485 623.721,83.849 624.452,84.012C624.85,84.099 625.22,84.06 625.555,83.868C625.633,83.823 625.709,83.768 625.782,83.705C626.11,83.42 626.398,82.95 626.629,82.254C626.782,82.292 626.93,82.297 627.076,82.27C627.188,82.25 627.299,82.211 627.408,82.154C627.443,82.551 627.534,82.905 627.656,83.22C627.699,83.331 627.743,83.438 627.793,83.54C628.247,84.462 629.083,84.966 629.919,85.004C630.413,85.027 630.911,84.89 631.329,84.573C631.426,84.5 631.518,84.416 631.604,84.323C632.067,83.818 632.379,83.032 632.371,81.945C632.822,81.668 633.144,81.338 633.367,80.99C634.05,79.926 633.759,78.633 632.828,77.815C632.464,77.496 632.004,77.245 631.47,77.127C630.553,76.925 629.423,77.101 628.221,77.865ZM628.175,78.226C628.229,78.247 628.291,78.241 628.34,78.21C629.477,77.522 630.518,77.396 631.362,77.585C631.818,77.687 632.218,77.877 632.539,78.139C633.362,78.811 633.691,79.921 633.114,80.838C632.905,81.171 632.572,81.468 632.12,81.716C632.068,81.745 632.037,81.799 632.037,81.857C632.019,82.868 631.72,83.585 631.284,84.037C631.212,84.112 631.136,84.179 631.058,84.24C630.723,84.503 630.33,84.639 629.928,84.638C629.197,84.637 628.45,84.218 628.022,83.428C627.972,83.336 627.925,83.24 627.887,83.137C627.752,82.774 627.694,82.35 627.71,81.873C627.711,81.814 627.676,81.76 627.621,81.734C627.567,81.707 627.502,81.714 627.454,81.751C627.311,81.852 627.167,81.914 627.021,81.932C626.878,81.949 626.735,81.918 626.588,81.843C626.537,81.819 626.479,81.818 626.428,81.839C626.376,81.86 626.337,81.902 626.319,81.954C626.069,82.637 625.786,83.085 625.463,83.341C625.41,83.383 625.355,83.419 625.3,83.451C625.07,83.584 624.82,83.624 624.542,83.576C623.908,83.47 623.418,83.187 623.076,82.788C622.917,82.603 622.788,82.395 622.694,82.17C622.394,81.449 622.423,80.572 622.718,79.772C622.912,79.246 623.354,78.82 623.923,78.503C624.266,78.311 624.656,78.157 625.076,78.055C626.044,77.82 627.16,77.843 628.175,78.226Z" style="fill:rgb(30,30,37);"/>
        </g>
        <g transform="matrix(2,0,0,2,-802.188,-114.267)">
            <path d="M781.897,80.793C784.073,81.33 785.408,80.343 785.351,79.195C785.283,77.839 783.046,76.117 781.287,78.281C778.788,79.243 779.294,82.63 781.897,80.793Z" style="fill:rgb(51,63,88);"/>
            <clipPath id="_clip12">
                <path d="M781.897,80.793C784.073,81.33 785.408,80.343 785.351,79.195C785.283,77.839 783.046,76.117 781.287,78.281C778.788,79.243 779.294,82.63 781.897,80.793Z"/>
            </clipPath>
            <g clip-path="url(#_clip12)">
                <path d="M780.437,81.609C780.038,81.101 779.81,79.997 781.822,80.129C782.936,78.603 784.117,78.537 785.543,79.087C785.543,79.087 787.129,81.277 787.113,81.457C787.097,81.637 783.423,85.674 782.955,85.409C782.488,85.143 780.437,81.609 780.437,81.609Z" style="fill:rgb(40,40,49);"/>
            </g>
            <path d="M781.927,80.957C782.51,81.115 783.037,81.174 783.493,81.122C783.912,81.074 784.266,80.935 784.556,80.761C784.919,80.544 785.175,80.255 785.322,79.933C785.343,79.886 785.363,79.839 785.381,79.791C785.454,79.599 785.494,79.398 785.491,79.188C785.487,78.872 785.378,78.531 785.182,78.219C785.106,78.099 785.018,77.983 784.915,77.877C784.591,77.543 784.15,77.298 783.672,77.198C783.489,77.16 783.3,77.15 783.106,77.152C782.575,77.16 782.003,77.328 781.443,77.823C781.365,77.891 781.287,77.963 781.214,78.046C781.194,78.068 781.175,78.092 781.156,78.116C780.655,78.347 780.289,78.674 780.019,79.018C779.651,79.487 779.47,80.001 779.49,80.445C779.507,80.822 779.659,81.145 779.928,81.334C780.107,81.46 780.34,81.526 780.619,81.509C780.972,81.487 781.412,81.326 781.927,80.957ZM781.933,80.647C781.891,80.637 781.846,80.645 781.811,80.671C781.412,80.939 781.067,81.084 780.778,81.132C780.511,81.177 780.301,81.132 780.145,81.024C779.959,80.895 779.852,80.679 779.828,80.422C779.794,80.045 779.912,79.583 780.235,79.192C780.49,78.883 780.874,78.634 781.361,78.472C781.394,78.459 781.423,78.438 781.446,78.41C781.473,78.378 781.501,78.348 781.527,78.318C781.591,78.242 781.65,78.168 781.713,78.101C782.163,77.618 782.643,77.374 783.111,77.357C783.284,77.351 783.453,77.385 783.614,77.432C784.027,77.552 784.378,77.819 784.653,78.123C784.739,78.217 784.819,78.313 784.889,78.414C785.066,78.667 785.188,78.938 785.211,79.202C785.227,79.418 785.195,79.632 785.099,79.824C784.966,80.093 784.718,80.313 784.398,80.474C784.134,80.606 783.814,80.68 783.448,80.72C783.01,80.769 782.504,80.769 781.933,80.647Z" style="fill:rgb(30,30,37);"/>
            <path d="M775.296,85.78C777.093,83.976 779.839,85.036 780.276,86.29C780.569,87.131 779.364,88.158 777.852,88.099C776.815,89.142 776.293,89.794 775.348,89.686C774.917,89.636 774.624,89.236 774.504,88.392C772.249,88.582 770.56,88.633 770.641,87.321C770.71,86.196 773.038,84.586 775.296,85.78Z" style="fill:rgb(51,63,88);"/>
            <clipPath id="_clip13">
                <path d="M775.296,85.78C777.093,83.976 779.839,85.036 780.276,86.29C780.569,87.131 779.364,88.158 777.852,88.099C776.815,89.142 776.293,89.794 775.348,89.686C774.917,89.636 774.624,89.236 774.504,88.392C772.249,88.582 770.56,88.633 770.641,87.321C770.71,86.196 773.038,84.586 775.296,85.78Z"/>
            </clipPath>
            <g clip-path="url(#_clip13)">
                <path d="M770.366,87.634C771.733,87.272 773.272,87.288 774.961,87.815C775.892,87.247 776.502,86.965 777.334,87.402C777.647,86.774 778.195,86.411 780.263,86.453L783.349,87.343C783.349,87.343 778.677,91.682 777.702,91.547C776.726,91.413 768.87,88.946 768.87,88.946L770.366,87.634Z" style="fill:rgb(40,40,49);"/>
            </g>
            <path d="M775.267,85.595C774.313,85.108 773.344,85.093 772.534,85.337C772.139,85.456 771.783,85.638 771.484,85.851C770.881,86.281 770.512,86.843 770.491,87.312C770.473,87.689 770.586,87.963 770.795,88.166C770.927,88.295 771.1,88.395 771.312,88.472C771.711,88.616 772.253,88.68 772.898,88.684C773.111,88.685 773.336,88.684 773.57,88.668C773.825,88.651 774.09,88.618 774.364,88.585C774.443,88.947 774.554,89.22 774.693,89.412C774.868,89.655 775.082,89.781 775.335,89.801C775.524,89.817 775.696,89.803 775.859,89.77C776.109,89.719 776.341,89.618 776.575,89.462C776.97,89.199 777.378,88.788 777.917,88.274C778.117,88.281 778.313,88.272 778.5,88.242C779.06,88.15 779.54,87.904 779.883,87.607C780.346,87.207 780.558,86.699 780.392,86.249C780.15,85.496 779.139,84.782 777.948,84.64C777.827,84.625 777.705,84.615 777.582,84.615C777.4,84.615 777.216,84.634 777.032,84.667C776.415,84.778 775.799,85.067 775.267,85.595ZM775.225,85.913C775.284,85.943 775.355,85.933 775.402,85.886C775.919,85.39 776.51,85.139 777.095,85.054C777.259,85.03 777.422,85.021 777.583,85.019C777.694,85.018 777.803,85.019 777.911,85.027C778.973,85.104 779.913,85.672 780.16,86.33C780.278,86.691 780.073,87.078 779.694,87.379C779.379,87.629 778.939,87.806 778.443,87.883C778.256,87.913 778.06,87.932 777.858,87.928C777.81,87.926 777.764,87.944 777.73,87.978C777.207,88.536 776.825,88.984 776.44,89.269C776.24,89.418 776.041,89.525 775.819,89.569C775.677,89.596 775.525,89.594 775.362,89.57C775.182,89.543 775.037,89.44 774.924,89.258C774.799,89.056 774.719,88.761 774.678,88.367C774.665,88.275 774.582,88.209 774.49,88.217C774.161,88.234 773.845,88.24 773.545,88.256C773.317,88.268 773.098,88.287 772.89,88.296C772.291,88.323 771.781,88.315 771.405,88.197C771.235,88.144 771.093,88.07 770.989,87.968C770.836,87.818 770.77,87.607 770.791,87.33C770.818,86.994 771.079,86.621 771.475,86.301C771.7,86.12 771.97,85.962 772.27,85.833C772.39,85.782 772.514,85.734 772.642,85.694C773.403,85.455 774.316,85.447 775.225,85.913Z" style="fill:rgb(30,30,37);"/>
            <path d="M775.764,77.973C777.272,78.207 778.683,77.589 778.7,76.736C778.699,76.679 778.68,76.624 778.647,76.577C777.844,75.438 776.798,74.768 775.658,74.769C772.963,74.77 770.4,78.054 772.367,79.547C773.776,80.233 774.855,79.475 775.764,77.973Z" style="fill:rgb(51,63,88);"/>
            <clipPath id="_clip14">
                <path d="M775.764,77.973C777.272,78.207 778.683,77.589 778.7,76.736C778.699,76.679 778.68,76.624 778.647,76.577C777.844,75.438 776.798,74.768 775.658,74.769C772.963,74.77 770.4,78.054 772.367,79.547C773.776,80.233 774.855,79.475 775.764,77.973Z"/>
            </clipPath>
            <g clip-path="url(#_clip14)">
                <path d="M771.674,78.273C773.527,79.802 774.086,78.194 775.499,76.902C775.519,76.884 775.548,76.878 775.574,76.886C776.535,77.178 777.884,77.25 778.662,76.581C778.662,76.581 778.636,78.614 778.553,78.756C778.471,78.897 775.764,81.779 775.167,81.649C774.571,81.519 770.922,78.314 770.922,78.314L771.674,78.273Z" style="fill:rgb(40,40,49);"/>
            </g>
            <path d="M775.841,78.139C776.344,78.221 776.836,78.212 777.271,78.127C777.504,78.081 777.721,78.014 777.912,77.926C778.502,77.654 778.859,77.213 778.854,76.739C778.854,76.737 778.854,76.734 778.854,76.731C778.851,76.688 778.843,76.645 778.828,76.605C778.813,76.565 778.793,76.526 778.767,76.492C778.582,76.244 778.38,76.025 778.18,75.82C777.846,75.478 777.502,75.187 777.126,74.979C776.852,74.827 776.568,74.71 776.271,74.649C776.071,74.607 775.865,74.595 775.657,74.6C775.052,74.622 774.461,74.802 773.923,75.085C773.876,75.11 773.829,75.137 773.781,75.162C773.67,75.22 773.558,75.277 773.45,75.34C772.793,75.723 772.214,76.234 771.872,76.82C771.523,77.418 771.424,78.072 771.581,78.636C771.604,78.717 771.633,78.796 771.666,78.875C771.786,79.164 771.978,79.436 772.274,79.669C772.282,79.675 772.29,79.681 772.299,79.685C772.939,80.013 773.523,80.058 774.055,79.872C774.301,79.786 774.535,79.647 774.758,79.466C775.15,79.149 775.508,78.695 775.841,78.139ZM775.787,77.825C775.727,77.816 775.667,77.844 775.635,77.896C775.218,78.559 774.77,79.067 774.275,79.355C774.162,79.421 774.046,79.474 773.929,79.517C773.482,79.679 772.995,79.664 772.446,79.414C772.195,79.227 772.017,79.012 771.919,78.771C771.893,78.705 771.874,78.636 771.859,78.567C771.755,78.074 771.934,77.545 772.232,77.028C772.344,76.833 772.463,76.634 772.611,76.446C772.858,76.131 773.155,75.833 773.497,75.587C773.642,75.484 773.792,75.386 773.952,75.306C774.478,75.042 775.071,74.917 775.658,74.937C775.83,74.941 775.998,74.967 776.166,74.998C776.553,75.071 776.932,75.204 777.288,75.423C777.529,75.571 777.767,75.746 777.981,75.964C778.18,76.166 778.356,76.406 778.526,76.662C778.526,76.662 778.526,76.662 778.526,76.662C778.534,76.674 778.539,76.687 778.543,76.701C778.546,76.711 778.547,76.722 778.547,76.733C778.528,77.092 778.202,77.367 777.75,77.563C777.58,77.637 777.392,77.701 777.189,77.749C776.767,77.849 776.285,77.887 775.787,77.825Z" style="fill:rgb(30,30,37);"/>
            <path d="M769.136,82.407C771.149,82.525 771.638,80.81 771.091,79.778C770.624,78.9 768.402,78.025 768.036,80.585C767.101,81.866 766.554,82.689 766.984,83.219C767.374,83.7 768.02,83.442 769.136,82.407Z" style="fill:rgb(51,63,88);"/>
            <clipPath id="_clip15">
                <path d="M769.136,82.407C771.149,82.525 771.638,80.81 771.091,79.778C770.624,78.9 768.402,78.025 768.036,80.585C767.101,81.866 766.554,82.689 766.984,83.219C767.374,83.7 768.02,83.442 769.136,82.407Z"/>
            </clipPath>
            <g clip-path="url(#_clip15)">
                <path d="M767.243,83.392C767.502,82.736 768.258,82.03 768.78,81.812C769.648,80.902 770.471,80.456 771.255,80.431L771.847,83.998C771.847,83.998 768.448,85.565 768.236,85.388C768.023,85.21 767.243,83.392 767.243,83.392Z" style="fill:rgb(40,40,49);"/>
            </g>
            <path d="M769.191,82.563C769.784,82.609 770.26,82.503 770.613,82.285C770.816,82.159 770.975,81.993 771.099,81.813C771.31,81.507 771.414,81.15 771.428,80.792C771.434,80.639 771.421,80.488 771.399,80.338C771.367,80.118 771.312,79.904 771.218,79.711C771.114,79.492 770.917,79.268 770.663,79.088C770.568,79.021 770.466,78.96 770.356,78.911C769.994,78.75 769.575,78.699 769.192,78.797C768.97,78.854 768.766,78.969 768.573,79.139C768.273,79.406 768.004,79.824 767.856,80.5C767.8,80.568 767.744,80.633 767.694,80.702C767.669,80.736 767.647,80.772 767.624,80.808C767.373,81.193 767.17,81.537 767.017,81.838C766.993,81.886 766.97,81.933 766.947,81.978C766.886,82.097 766.83,82.208 766.788,82.313C766.626,82.721 766.642,83.051 766.852,83.326C767.066,83.604 767.351,83.704 767.725,83.601C768.099,83.498 768.577,83.151 769.191,82.563ZM769.144,82.257C769.104,82.255 769.064,82.269 769.034,82.297C768.547,82.728 768.153,83.014 767.833,83.161C767.743,83.202 767.66,83.229 767.583,83.247C767.39,83.292 767.238,83.253 767.116,83.111C766.914,82.875 766.963,82.557 767.168,82.15C767.207,82.072 767.255,81.992 767.308,81.909C767.483,81.635 767.734,81.347 767.991,80.997C768.06,80.903 768.123,80.802 768.192,80.7C768.211,80.674 768.223,80.644 768.228,80.613C768.281,79.976 768.446,79.541 768.713,79.293C768.869,79.148 769.057,79.078 769.245,79.046C769.571,78.991 769.906,79.093 770.204,79.238C770.327,79.297 770.445,79.361 770.551,79.436C770.728,79.559 770.877,79.699 770.963,79.846C771.056,80.007 771.13,80.185 771.158,80.374C771.22,80.796 771.094,81.249 770.811,81.597C770.702,81.732 770.561,81.842 770.4,81.942C770.087,82.136 769.68,82.269 769.144,82.257Z" style="fill:rgb(30,30,37);"/>
        </g>
    </g>
</svg>
