<?xml version="1.0" encoding="UTF-8" standalone="no"?>
<!DOCTYPE svg PUBLIC "-//W3C//DTD SVG 1.1//EN" "http://www.w3.org/Graphics/SVG/1.1/DTD/svg11.dtd">
<svg width="100%" height="100%" viewBox="0 0 200 200" version="1.1" xmlns="http://www.w3.org/2000/svg" xmlns:xlink="http://www.w3.org/1999/xlink" xml:space="preserve" xmlns:serif="http://www.serif.com/" style="fill-rule:evenodd;clip-rule:evenodd;stroke-linecap:round;stroke-linejoin:round;stroke-miterlimit:1.5;">
    <g transform="matrix(1,0,0,1,-1.00595,1.48477)">
        <path d="M96.428,144.303C95.202,144.303 94.209,145.297 94.209,146.522C94.209,150.255 94.209,157.385 94.209,157.385C92.062,157.031 90.279,160.496 88.79,167.046C88.677,167.544 88.234,167.897 87.724,167.897C86.441,167.897 84.058,167.897 82.671,167.897C82.076,167.897 81.593,167.415 81.593,166.819C81.593,163.204 81.593,151.46 81.593,146.522C81.593,145.297 80.599,144.303 79.374,144.303C77.934,144.303 76.066,144.303 74.627,144.303C73.402,144.303 72.408,145.297 72.408,146.522C72.408,151.467 72.408,163.235 72.408,166.834C72.408,167.421 71.932,167.897 71.344,167.897C69.078,167.897 63.977,167.897 63.977,167.897C63.065,167.897 62.191,167.549 61.547,166.929C60.902,166.309 60.54,165.469 60.54,164.592C60.54,156.73 60.54,137.132 60.54,131.229C60.54,130.106 60.2,129.008 59.563,128.068C54.477,120.377 47.097,102.178 47.097,86.986C47.097,73.028 50.8,66.344 52.246,58.491C54.178,47.995 60.776,38.647 69.332,35.336C77.634,32.124 86.539,29.133 97.602,29.133C98.002,29.133 98.401,29.137 98.801,29.146L99.101,29.14C99.401,29.135 99.7,29.133 100,29.133C111.064,29.133 119.013,32.137 127.316,35.349C135.872,38.66 145.194,47.455 147.127,57.951C148.572,65.803 154.915,74.428 154.915,88.387C154.915,96.81 152.028,105.726 148.589,113.311C148.534,113.433 142.764,111.583 142.764,111.583L139.19,111.718L137.169,110.528L139.19,111.718L142.764,111.583C142.764,111.583 148.111,114.186 148.049,114.318C145.46,119.793 142.522,124.915 140.437,128.068C139.8,129.008 139.46,130.106 139.46,131.229C139.46,133.492 138.568,137.849 139.46,142.62C139.564,143.179 136.941,149.652 136.941,149.652L139.46,164.592C139.46,164.592 139.098,166.309 138.453,166.929C137.809,167.549 136.935,167.897 136.023,167.897C136.023,167.897 130.922,167.897 128.656,167.897C128.068,167.897 127.592,167.421 127.592,166.834C127.592,163.235 127.592,151.467 127.592,146.522C127.592,145.297 126.598,144.303 125.373,144.303C123.934,144.303 122.066,144.303 120.626,144.303C119.401,144.303 118.407,145.297 118.407,146.522C118.407,151.46 118.407,163.204 118.407,166.819C118.407,167.415 117.924,167.897 117.329,167.897C115.942,167.897 113.559,167.897 112.276,167.897C111.766,167.897 111.323,167.544 111.21,167.046C109.721,160.496 107.938,157.031 105.791,157.385C105.791,157.385 105.791,150.255 105.791,146.522C105.791,145.297 104.798,144.303 103.572,144.303L96.428,144.303ZM94.837,104.322C95.852,104.322 96.035,105.872 96.901,106.939C97.503,107.681 96.57,108.445 95.556,108.445C94.541,108.445 92.999,107.008 92.999,106.053C92.999,105.098 93.823,104.322 94.837,104.322ZM105.163,104.322C104.148,104.322 103.965,105.872 103.099,106.939C102.497,107.681 103.43,108.445 104.444,108.445C105.459,108.445 107.001,107.008 107.001,106.053C107.001,105.098 106.177,104.322 105.163,104.322ZM78.471,69.949C83.516,71.077 88.703,74.645 88.703,79.627C88.703,84.61 83.65,88.004 78.471,88.004C73.291,88.004 70.738,84.498 68.846,79.86C66.057,73.022 70.671,68.205 78.471,69.949ZM121.529,69.949C116.484,71.077 111.297,74.645 111.297,79.627C111.297,84.61 116.35,88.004 121.529,88.004C126.709,88.004 129.262,84.498 131.154,79.86C133.943,73.022 129.329,68.205 121.529,69.949Z" style="fill:rgb(238,134,149);stroke:rgb(234,113,131);stroke-width:1px;"/>
    </g>
</svg>
